<?xml version="1.0" encoding="utf-8"?>
<!-- Generator: Adobe Illustrator 19.2.1, SVG Export Plug-In . SVG Version: 6.00 Build 0)  -->
<svg version="1.1" id="Layer_1" xmlns="http://www.w3.org/2000/svg" xmlns:xlink="http://www.w3.org/1999/xlink" x="0px" y="0px"
	 viewBox="0 0 100 100" style="enable-background:new 0 0 100 100;" xml:space="preserve">
<title>blizzardn</title>
<desc>Created with Sketch.</desc>
<g id="Page-1">
	<g id="blizzardn">
		<path id="Shape" d="M73.4,56L73.4,56l-0.7,0.1h-3c-1.1,0-2-0.9-2-2c0-1.1,0.9-2,2-2h3c1.1,0,2-0.9,2-2s-0.9-2-2-2s-2-0.9-2-2
			c0-1.1,0.9-2,2-2c0.1,0,0.3,0,0.4,0c3.1,0.2,5.6,2.7,5.6,5.9C78.6,53.2,76.4,55.7,73.4,56L73.4,56L73.4,56z M62.7,44.3
			c-1.1,0-2-0.9-2-2c0-1.1,0.9-2,2-2c0.1,0,0.3,0,0.4,0c3.1,0.2,5.6,2.7,5.6,5.9c0,3-2.3,5.5-5.2,5.9v0.1h-0.7h-7.9H40.9
			c-1.1,0-2,0.9-2,2c0,1.1,0.9,2,2,2h21.8h0.7v0.1c2.9,0.4,5.2,2.8,5.2,5.9c0,3.1-2.5,5.7-5.6,5.9c-0.1,0-0.3,0-0.4,0
			c-1.1,0-2-0.9-2-2c0-1.1,0.9-2,2-2s2-0.9,2-2c0-1.1-0.9-2-2-2H40.9h-0.7V60c-2.9-0.4-5.2-2.9-5.2-5.9c0-1,0.3-2,0.8-2.9
			c-6.2-2.1-10.7-8-10.7-14.9c0-8.7,7.1-15.8,15.9-15.8c6,0,11.2,3.3,13.9,8.1c0.7-0.1,1.3-0.2,2-0.2c5.9,0,10.7,4.2,11.7,9.7
			c-1.4-1-3-1.6-4.8-1.8c-1.4-2.4-3.9-4-6.9-4c-1.6,0-3.1,0.5-4.3,1.3c-1.2-5.2-5.9-9.2-11.6-9.2c-6.6,0-11.9,5.3-11.9,11.8
			c0,6.5,5.3,11.8,11.9,11.8H53h9.7c1.1,0,2-0.9,2-2C64.7,45.1,63.8,44.3,62.7,44.3L62.7,44.3z M52.8,71.9c1.1,0,2,0.9,2,2
			c0,1.1-0.9,2-2,2c-1.1,0-2-0.9-2-2C50.8,72.8,51.7,71.9,52.8,71.9L52.8,71.9z M52.8,64c1.1,0,2,0.9,2,2c0,1.1-0.9,2-2,2
			c-1.1,0-2-0.9-2-2C50.8,64.9,51.7,64,52.8,64L52.8,64z M44.9,75.8c1.1,0,2,0.9,2,2c0,1.1-0.9,2-2,2c-1.1,0-2-0.9-2-2
			C42.9,76.7,43.8,75.8,44.9,75.8L44.9,75.8z M44.9,67.9c1.1,0,2,0.9,2,2c0,1.1-0.9,2-2,2c-1.1,0-2-0.9-2-2
			C42.9,68.8,43.8,67.9,44.9,67.9L44.9,67.9z M36.9,71.9c1.1,0,2,0.9,2,2c0,1.1-0.9,2-2,2c-1.1,0-2-0.9-2-2
			C34.9,72.8,35.8,71.9,36.9,71.9L36.9,71.9z M36.9,64c1.1,0,2,0.9,2,2c0,1.1-0.9,2-2,2c-1.1,0-2-0.9-2-2C34.9,64.9,35.8,64,36.9,64
			L36.9,64z"/>
	</g>
</g>
</svg>
