<?xml version="1.0" encoding="utf-8"?>
<!-- Generator: Adobe Illustrator 19.2.1, SVG Export Plug-In . SVG Version: 6.00 Build 0)  -->
<svg version="1.1" id="Layer_1" xmlns="http://www.w3.org/2000/svg" xmlns:xlink="http://www.w3.org/1999/xlink" x="0px" y="0px"
	 viewBox="0 0 100 100" style="enable-background:new 0 0 100 100;" xml:space="preserve">
<title>blizzardn</title>
<desc>Created with Sketch.</desc>
<g>
	<ellipse cx="36.9" cy="66" rx="2" ry="2"/>
	<ellipse cx="36.9" cy="73.8" rx="2" ry="2"/>
	<ellipse cx="44.9" cy="69.9" rx="2" ry="2"/>
	<ellipse cx="44.9" cy="77.8" rx="2" ry="2"/>
	<ellipse cx="52.8" cy="66" rx="2" ry="2"/>
	<ellipse cx="52.8" cy="73.8" rx="2" ry="2"/>
	<path d="M73,44.2c-0.1,0-0.3,0-0.4,0c-1.1,0-2,0.9-2,2c0,1.1,0.9,2,2,2c1.1,0,2,0.9,2,2c0,1.1-0.9,2-2,2h-3c-1.1,0-2,0.9-2,2
		c0,1.1,0.9,2,2,2h3h0.7V56c2.9-0.4,5.2-2.9,5.2-5.9C78.6,47,76.1,44.4,73,44.2z"/>
	<path d="M63.5,56.1L63.5,56.1l-0.7-0.1H40.9c-1.1,0-2-0.9-2-2c0-1.1,0.9-2,2-2c2.6,0,9.9,0,13.9,0h7.9h0.7v-0.1
		c2.9-0.4,5.2-2.9,5.2-5.9c0-3.2-2.5-5.7-5.6-5.9c-0.1,0-0.3,0-0.4,0c-1.1,0-2,0.9-2,2s0.9,2,2,2c1.1,0,2,0.9,2,2c0,1.1-0.9,2-2,2
		H53c-4,0-9.5,0-12.1,0c-6.6,0-11.9-5.3-11.9-11.9c0-6.6,5.3-11.9,11.9-11.9c5.6,0,10.4,3.9,11.6,9.2c1.2-0.8,2.7-1.3,4.3-1.3
		c2.9,0,5.5,1.6,6.9,4h0c0,0,0,0,0,0c1.8,0.2,3.4,0.8,4.8,1.8c-0.1-0.6-0.3-1.3-0.5-1.8h0c-0.4-1-0.8-2-1.5-2.9
		c2-2.1,3.2-4.9,3.2-8.1c0-0.7-0.1-1.5-0.2-2.2c-0.6,0.1-1.2,0.2-1.8,0.2c-4.4,0-7.9-3.6-7.9-7.9c0-0.6,0.1-1.2,0.2-1.8
		c-0.7-0.1-1.4-0.2-2.2-0.2c-5.2,0-9.6,3.3-11.2,8c-1.8-0.7-3.7-1-5.6-1c-8.8,0-15.9,7.1-15.9,15.9c0,7,4.5,12.8,10.7,15
		c-0.5,0.9-0.8,1.8-0.8,2.9c0,3,2.3,5.5,5.2,5.9v0.1h0.7h21.8c1.1,0,2,0.9,2,2c0,1.1-0.9,2-2,2c-1.1,0-2,0.9-2,2c0,1.1,0.9,2,2,2
		c0.1,0,0.3,0,0.4,0c3.1-0.2,5.6-2.8,5.6-5.9C68.7,59,66.4,56.5,63.5,56.1z M56,17.6c0.9,4.8,4.7,8.6,9.5,9.5
		c-0.3,1.3-0.9,2.5-1.8,3.5c-2-1.4-4.4-2.3-7-2.3c-0.7,0-1.4,0.1-2,0.2c-1.1-2.1-2.7-3.8-4.6-5.2C50.9,20.5,53.1,18.3,56,17.6z"/>
</g>
</svg>
