<?xml version="1.0" encoding="UTF-8" standalone="no"?>
<svg width="54px" height="61px" viewBox="0 0 54 61" version="1.1" xmlns="http://www.w3.org/2000/svg" xmlns:xlink="http://www.w3.org/1999/xlink">
    <!-- Generator: Sketch 3.6.1 (26313) - http://www.bohemiancoding.com/sketch -->
    <title>Cloud-Wind</title>
    <desc>Created with Sketch.</desc>
    <defs></defs>
    <g id="Page-1" stroke="none" stroke-width="1" fill="none" fill-rule="evenodd">
        <g id="Cloud-Wind" fill="#000000">
            <path d="M48.746,36.588 L48.746,36.639 L47.997,36.639 L44.997,36.639 C43.893,36.639 42.997,35.744 42.997,34.639 C42.997,33.535 43.893,32.64 44.997,32.64 L47.997,32.64 C49.101,32.64 49.996,31.744 49.996,30.64 C49.996,29.536 49.101,28.641 47.997,28.641 C46.893,28.641 45.997,27.745 45.997,26.641 C45.997,25.536 46.893,24.641 47.997,24.641 C48.135,24.641 48.269,24.655 48.399,24.682 C51.521,24.893 53.996,27.465 53.996,30.64 C53.996,33.698 51.705,36.217 48.746,36.588 L48.746,36.588 Z M37.998,24.641 C36.894,24.641 35.998,23.745 35.998,22.641 C35.998,21.537 36.894,20.641 37.998,20.641 C38.136,20.641 38.27,20.655 38.401,20.682 C41.522,20.893 43.997,23.465 43.997,26.641 C43.997,29.7 41.706,32.218 38.748,32.588 L38.748,32.64 L37.998,32.64 L30.013,32.64 L16.001,32.64 C14.897,32.64 14.001,33.536 14.001,34.639 C14.001,35.744 14.897,36.639 16.001,36.639 L37.998,36.639 L38.748,36.639 L38.748,36.692 C41.706,37.061 43.997,39.581 43.997,42.639 C43.997,45.814 41.522,48.386 38.401,48.597 C38.27,48.623 38.135,48.638 37.998,48.638 C36.894,48.638 35.998,47.742 35.998,46.638 C35.998,45.534 36.894,44.639 37.998,44.639 C39.102,44.639 39.998,43.743 39.998,42.639 C39.998,41.534 39.102,40.639 37.998,40.639 L16.001,40.639 L15.251,40.639 L15.251,40.587 C12.292,40.217 10.001,37.697 10.001,34.639 C10.001,33.584 10.295,32.607 10.774,31.749 C4.509,29.581 0.003,23.645 0.003,16.642 C0.003,7.807 7.165,0.644 16.001,0.644 C22.005,0.644 27.23,3.956 29.966,8.848 C30.63,8.734 31.302,8.643 31.999,8.643 C37.895,8.643 42.787,12.899 43.797,18.505 C42.402,17.51 40.747,16.859 38.948,16.69 C37.571,14.274 34.977,12.643 31.999,12.643 C30.398,12.643 28.915,13.123 27.665,13.933 C26.434,8.617 21.692,4.643 16.001,4.643 C9.374,4.643 4.002,10.015 4.002,16.642 C4.002,23.268 9.374,28.641 16.001,28.641 L28.2,28.641 L37.998,28.641 C39.102,28.641 39.998,27.745 39.998,26.641 C39.998,25.535 39.103,24.641 37.998,24.641 Z M27.999,52.641 C29.104,52.641 29.999,53.536 29.999,54.641 C29.999,55.745 29.104,56.639 27.999,56.639 C26.895,56.639 26,55.744 26,54.641 C26,53.535 26.896,52.641 27.999,52.641 Z M27.999,44.641 C29.104,44.641 29.999,45.537 29.999,46.641 C29.999,47.746 29.104,48.641 27.999,48.641 C26.895,48.641 26,47.746 26,46.641 C26,45.537 26.896,44.641 27.999,44.641 Z M20.001,56.639 C21.105,56.639 22.001,57.535 22.001,58.639 C22.001,59.744 21.105,60.639 20.001,60.639 C18.896,60.639 18.001,59.744 18.001,58.639 C18.001,57.535 18.896,56.639 20.001,56.639 Z M20.001,48.641 C21.105,48.641 22.001,49.536 22.001,50.641 C22.001,51.745 21.105,52.641 20.001,52.641 C18.896,52.641 18.001,51.745 18.001,50.641 C18.001,49.535 18.896,48.641 20.001,48.641 Z M12.001,52.641 C13.106,52.641 14.001,53.536 14.001,54.641 C14.001,55.745 13.106,56.639 12.001,56.639 C10.897,56.639 10.002,55.744 10.002,54.641 C10.002,53.535 10.897,52.641 12.001,52.641 Z M12.001,44.641 C13.106,44.641 14.001,45.537 14.001,46.641 C14.001,47.746 13.106,48.641 12.001,48.641 C10.897,48.641 10.002,47.746 10.002,46.641 C10.002,45.537 10.897,44.641 12.001,44.641 Z" id="Shape"></path>
        </g>
    </g>
</svg>