<?xml version="1.0" encoding="utf-8"?>
<!-- Generator: Adobe Illustrator 19.2.1, SVG Export Plug-In . SVG Version: 6.00 Build 0)  -->
<svg version="1.1" id="Layer_1" xmlns="http://www.w3.org/2000/svg" xmlns:xlink="http://www.w3.org/1999/xlink" x="0px" y="0px"
	 viewBox="0 0 100 100" style="enable-background:new 0 0 100 100;" xml:space="preserve">
<title>blizzardn</title>
<desc>Created with Sketch.</desc>
<g>
	<path d="M63.5,56.1L63.5,56.1l-0.7-0.1H40.9c-1.1,0-2-0.9-2-2c0-1.1,0.9-2,2-2h13.9h7.9h0.7v-0.1c2.9-0.4,5.2-2.8,5.2-5.9
		c0-3.1-2.5-5.7-5.6-5.9c-0.1,0-0.3,0-0.4,0c-1.1,0-2,0.9-2,2c0,1.1,0.9,2,2,2c1.1,0,2,0.9,2,2c0,1.1-0.9,2-2,2H53H40.9
		c-6.6,0-11.9-5.3-11.9-11.8c0-6.5,5.3-11.8,11.9-11.8c5.7,0,10.4,3.9,11.6,9.2c1.2-0.8,2.7-1.3,4.3-1.3c3,0,5.5,1.6,6.9,4
		c1.8,0.2,3.4,0.8,4.8,1.8c-1-5.5-5.9-9.7-11.7-9.7c-0.7,0-1.4,0.1-2,0.2c-2.7-4.8-7.9-8.1-13.9-8.1c-8.8,0-15.9,7.1-15.9,15.8
		c0,6.9,4.5,12.8,10.7,14.9c-0.5,0.8-0.8,1.8-0.8,2.9c0,3,2.3,5.5,5.2,5.9V60h0.7h21.8c1.1,0,2,0.9,2,2c0,1.1-0.9,2-2,2s-2,0.9-2,2
		s0.9,2,2,2c0.1,0,0.3,0,0.4,0c3.1-0.2,5.6-2.7,5.6-5.9C68.7,59,66.4,56.5,63.5,56.1z"/>
	<path d="M73.1,44.3c-0.1,0-0.3,0-0.4,0c-1.1,0-2,0.9-2,2c0,1.1,0.9,2,2,2s2,0.9,2,2s-0.9,2-2,2h-3c-1.1,0-2,0.9-2,2
		c0,1.1,0.9,2,2,2h3h0.7V56c2.9-0.4,5.2-2.9,5.2-5.9C78.6,47,76.2,44.5,73.1,44.3z"/>
	<path d="M43.9,68.8c0.3-0.6,0.1-1.3-0.4-1.6l-1.3-0.7l1.3-0.7c0.6-0.3,0.7-1,0.4-1.6c-0.3-0.6-1-0.7-1.6-0.4L41,64.5V63
		c0-0.6-0.5-1.2-1.2-1.2s-1.2,0.5-1.2,1.2v1.5l-1.3-0.7c-0.6-0.3-1.3-0.1-1.6,0.4c-0.3,0.6-0.1,1.3,0.4,1.6l1.3,0.7l-1.3,0.7
		c-0.6,0.3-0.7,1-0.4,1.6c0.3,0.6,1,0.7,1.6,0.4l1.3-0.7V70c0,0.6,0.5,1.2,1.2,1.2S41,70.6,41,70v-1.5l1.3,0.7
		C42.9,69.6,43.6,69.4,43.9,68.8z M39.9,67.6c-0.6,0-1.2-0.5-1.2-1.2c0-0.6,0.5-1.2,1.2-1.2s1.2,0.5,1.2,1.2
		C41,67.1,40.5,67.6,39.9,67.6z"/>
	<path d="M57.8,67.2l-1.3-0.7l1.3-0.7c0.6-0.3,0.7-1,0.4-1.6c-0.3-0.6-1-0.7-1.6-0.4l-1.3,0.7V63c0-0.6-0.5-1.2-1.2-1.2
		S53,62.3,53,63v1.5l-1.3-0.7c-0.6-0.3-1.3-0.1-1.6,0.4c-0.3,0.6-0.1,1.3,0.4,1.6l1.3,0.7l-1.3,0.7c-0.6,0.3-0.7,1-0.4,1.6
		c0.3,0.6,1,0.7,1.6,0.4l1.3-0.7V70c0,0.6,0.5,1.2,1.2,1.2s1.2-0.5,1.2-1.2v-1.5l1.3,0.7c0.6,0.3,1.3,0.1,1.6-0.4
		C58.6,68.3,58.4,67.5,57.8,67.2z M54.2,67.6c-0.6,0-1.2-0.5-1.2-1.2c0-0.6,0.5-1.2,1.2-1.2s1.2,0.5,1.2,1.2
		C55.4,67.1,54.8,67.6,54.2,67.6z"/>
	<path d="M50.6,76.5l-1.3-0.7l1.3-0.7c0.6-0.3,0.7-1,0.4-1.6c-0.3-0.6-1-0.7-1.6-0.4l-1.3,0.7v-1.5c0-0.6-0.5-1.2-1.2-1.2
		c-0.6,0-1.2,0.5-1.2,1.2v1.5L44.6,73c-0.6-0.3-1.3-0.1-1.6,0.4c-0.3,0.6-0.1,1.3,0.4,1.6l1.3,0.7l-1.3,0.7c-0.6,0.3-0.7,1-0.4,1.6
		c0.3,0.6,1,0.7,1.6,0.4l1.3-0.7v1.5c0,0.6,0.5,1.2,1.2,1.2s1.2-0.5,1.2-1.2v-1.5l1.3,0.7c0.6,0.3,1.3,0.1,1.6-0.4
		C51.4,77.6,51.2,76.9,50.6,76.5z M47,77c-0.6,0-1.2-0.5-1.2-1.2c0-0.6,0.5-1.2,1.2-1.2s1.2,0.5,1.2,1.2C48.2,76.4,47.7,77,47,77z"
		/>
</g>
</svg>
