<?xml version="1.0" encoding="utf-8"?>
<!-- Generator: Adobe Illustrator 19.2.1, SVG Export Plug-In . SVG Version: 6.00 Build 0)  -->
<svg version="1.1" id="Layer_1" xmlns="http://www.w3.org/2000/svg" xmlns:xlink="http://www.w3.org/1999/xlink" x="0px" y="0px"
	 viewBox="0 0 100 100" style="enable-background:new 0 0 100 100;" xml:space="preserve">
<title>blizzardn</title>
<desc>Created with Sketch.</desc>
<g>
	<path d="M44.4,67.6c0.3-0.5,0.1-1.2-0.4-1.5l-1.2-0.7l1.2-0.7c0.5-0.3,0.7-1,0.4-1.5c-0.3-0.5-1-0.7-1.5-0.4l-1.2,0.7v-1.4
		c0-0.6-0.5-1.1-1.1-1.1s-1.1,0.5-1.1,1.1v1.4l-1.2-0.7c-0.5-0.3-1.2-0.1-1.5,0.4c-0.3,0.5-0.1,1.2,0.4,1.5l1.2,0.7l-1.2,0.7
		c-0.5,0.3-0.7,1-0.4,1.5c0.3,0.5,1,0.7,1.5,0.4l1.2-0.7v1.4c0,0.6,0.5,1.1,1.1,1.1s1.1-0.5,1.1-1.1v-1.4l1.2,0.7
		C43.4,68.3,44.1,68.1,44.4,67.6z M40.5,66.5c-0.6,0-1.1-0.5-1.1-1.1c0-0.6,0.5-1.1,1.1-1.1s1.1,0.5,1.1,1.1
		C41.6,66,41.1,66.5,40.5,66.5z"/>
	<path d="M57.5,66.1l-1.2-0.7l1.2-0.7c0.5-0.3,0.7-1,0.4-1.5c-0.3-0.5-1-0.7-1.5-0.4l-1.2,0.7v-1.4c0-0.6-0.5-1.1-1.1-1.1
		c-0.6,0-1.1,0.5-1.1,1.1v1.4l-1.2-0.7c-0.5-0.3-1.2-0.1-1.5,0.4c-0.3,0.5-0.1,1.2,0.4,1.5l1.2,0.7l-1.2,0.7c-0.5,0.3-0.7,1-0.4,1.5
		c0.3,0.5,1,0.7,1.5,0.4l1.2-0.7v1.4c0,0.6,0.5,1.1,1.1,1.1c0.6,0,1.1-0.5,1.1-1.1v-1.4l1.2,0.7c0.5,0.3,1.2,0.1,1.5-0.4
		C58.2,67,58,66.4,57.5,66.1z M54.1,66.5c-0.6,0-1.1-0.5-1.1-1.1c0-0.6,0.5-1.1,1.1-1.1c0.6,0,1.1,0.5,1.1,1.1
		C55.2,66,54.7,66.5,54.1,66.5z"/>
	<path d="M50.7,74.9l-1.2-0.7l1.2-0.7c0.5-0.3,0.7-1,0.4-1.5c-0.3-0.5-1-0.7-1.5-0.4l-1.2,0.7v-1.4c0-0.6-0.5-1.1-1.1-1.1
		c-0.6,0-1.1,0.5-1.1,1.1v1.4L45,71.6c-0.5-0.3-1.2-0.1-1.5,0.4c-0.3,0.5-0.1,1.2,0.4,1.5l1.2,0.7l-1.2,0.7c-0.5,0.3-0.7,1-0.4,1.5
		c0.3,0.5,1,0.7,1.5,0.4l1.2-0.7v1.4c0,0.6,0.5,1.1,1.1,1.1c0.6,0,1.1-0.5,1.1-1.1v-1.4l1.2,0.7c0.5,0.3,1.2,0.1,1.5-0.4
		C51.4,75.9,51.2,75.2,50.7,74.9z M47.3,75.3c-0.6,0-1.1-0.5-1.1-1.1c0-0.6,0.5-1.1,1.1-1.1c0.6,0,1.1,0.5,1.1,1.1
		C48.4,74.8,47.9,75.3,47.3,75.3z"/>
	<path d="M72.2,44c-0.1,0-0.2,0-0.4,0c-1,0-1.9,0.8-1.9,1.9c0,1,0.8,1.9,1.9,1.9c1,0,1.9,0.8,1.9,1.9s-0.8,1.9-1.9,1.9H69
		c-1,0-1.9,0.8-1.9,1.9c0,1,0.8,1.9,1.9,1.9h2.8h0.7v0c2.8-0.4,5-2.7,5-5.6C77.5,46.6,75.2,44.1,72.2,44z"/>
	<path d="M63.1,55.3L63.1,55.3l-0.7-0.1H41.6c-1,0-1.9-0.8-1.9-1.9c0-1,0.8-1.9,1.9-1.9c2.5,0,9.4,0,13.2,0h7.5h0.7v0
		c2.8-0.3,5-2.7,5-5.6c0-3-2.3-5.4-5.3-5.6c-0.1,0-0.2,0-0.4,0c-1,0-1.9,0.8-1.9,1.9s0.8,1.9,1.9,1.9s1.9,0.8,1.9,1.9
		c0,1-0.8,1.9-1.9,1.9h-9.3c-3.8,0-9.1,0-11.5,0c-6.3,0-11.3-5.1-11.3-11.3c0-6.3,5.1-11.3,11.3-11.3c5.4,0,9.9,3.8,11,8.8
		c1.2-0.8,2.6-1.2,4.1-1.2c2.8,0,5.2,1.5,6.5,3.8h0c0,0,0,0,0,0c1.7,0.2,3.3,0.8,4.6,1.7c-0.1-0.6-0.3-1.2-0.5-1.8h0
		c-0.3-1-0.8-1.9-1.4-2.7c1.9-2,3-4.7,3-7.7c0-0.7-0.1-1.4-0.2-2.1c-0.5,0.1-1.1,0.2-1.7,0.2c-4.2,0-7.6-3.4-7.6-7.6
		c0-0.6,0.1-1.1,0.2-1.7c-0.7-0.1-1.4-0.2-2.1-0.2c-4.9,0-9.1,3.2-10.7,7.6c-1.7-0.6-3.5-1-5.4-1c-8.3,0-15.1,6.8-15.1,15.1
		c0,6.6,4.3,12.2,10.2,14.3c-0.5,0.8-0.7,1.7-0.7,2.7c0,2.9,2.2,5.3,5,5.6v0h0.7h20.8c1,0,1.9,0.8,1.9,1.9c0,1-0.8,1.9-1.9,1.9
		c-1,0-1.9,0.8-1.9,1.9s0.8,1.9,1.9,1.9c0.1,0,0.3,0,0.4,0c2.9-0.2,5.3-2.6,5.3-5.6C68.1,58,65.9,55.6,63.1,55.3z M56,18.6
		c0.9,4.6,4.5,8.2,9,9c-0.3,1.2-0.9,2.4-1.7,3.3c-1.9-1.3-4.1-2.1-6.6-2.1c-0.7,0-1.3,0.1-1.9,0.2c-1.1-2-2.6-3.6-4.4-4.9
		C51.1,21.4,53.2,19.2,56,18.6z"/>
</g>
</svg>
