<?xml version="1.0" encoding="UTF-8" standalone="no"?>
<svg width="65px" height="53px" viewBox="0 0 65 53" version="1.1" xmlns="http://www.w3.org/2000/svg" xmlns:xlink="http://www.w3.org/1999/xlink">
    <!-- Generator: Sketch 3.6.1 (26313) - http://www.bohemiancoding.com/sketch -->
    <title>Group</title>
    <desc>Created with Sketch.</desc>
    <defs></defs>
    <g id="Page-1" stroke="none" stroke-width="1" fill="none" fill-rule="evenodd">
        <g id="Group" fill="#000000">
            <g id="Cloud-Wind" transform="translate(21.000000, 24.000000)">
                <path d="M38.746,16.588 L38.746,16.639 L37.997,16.639 L34.997,16.639 C33.893,16.639 32.997,15.744 32.997,14.639 C32.997,13.535 33.893,12.64 34.997,12.64 L37.997,12.64 C39.101,12.64 39.996,11.744 39.996,10.64 C39.996,9.536 39.101,8.641 37.997,8.641 C36.893,8.641 35.997,7.745 35.997,6.641 C35.997,5.536 36.893,4.641 37.997,4.641 C38.135,4.641 38.269,4.655 38.399,4.682 C41.521,4.893 43.996,7.465 43.996,10.64 C43.996,13.698 41.705,16.217 38.746,16.588 L38.746,16.588 Z M0.59540053,11.6860052 C0.654772412,11.707344 0.714306361,11.728343 0.774,11.749 C0.295,12.607 0.001,13.584 0.001,14.639 C0.001,17.697 2.292,20.217 5.251,20.587 L5.251,20.639 L6.001,20.639 L27.998,20.639 C29.102,20.639 29.998,21.534 29.998,22.639 C29.998,23.743 29.102,24.639 27.998,24.639 C26.894,24.639 25.998,25.534 25.998,26.638 C25.998,27.742 26.894,28.638 27.998,28.638 C28.135,28.638 28.27,28.623 28.401,28.597 C31.522,28.386 33.997,25.814 33.997,22.639 C33.997,19.581 31.706,17.061 28.748,16.692 L28.748,16.639 L27.998,16.639 L6.001,16.639 C4.897,16.639 4.001,15.744 4.001,14.639 C4.001,13.536 4.897,12.64 6.001,12.64 L20.013,12.64 L27.998,12.64 L28.748,12.64 L28.748,12.588 C31.706,12.218 33.997,9.7 33.997,6.641 C33.997,3.465 31.522,0.893 28.401,0.682 C28.27,0.655 28.136,0.641 27.998,0.641 C26.894,0.641 25.998,1.537 25.998,2.641 C25.998,3.745 26.894,4.641 27.998,4.641 C29.103,4.641 29.998,5.535 29.998,6.641 C29.998,7.745 29.102,8.641 27.998,8.641 L18.2,8.641 L6.001,8.641 C5.43795482,8.641 4.88396897,8.6022145 4.34156744,8.52717033 C2.88387302,8.80964311 1.12868661,10.9846906 0.59540053,11.6860052 Z" id="Combined-Shape"></path>
            </g>
            <g id="Layer_1">
                <path d="M38.142,12.688 C37.361,13.469 36.093,13.469 35.314,12.688 C34.533,11.907 34.533,10.641 35.314,9.86 L38.142,7.032 C38.921,6.251 40.189,6.251 40.97,7.032 C41.749,7.813 41.749,9.079 40.97,9.86 L38.142,12.688 L38.142,12.688 Z M24.001,35.998 C17.374,35.998 12.001,30.626 12.001,24 C12.001,17.373 17.373,12.001 24.001,12.001 C30.628,12.001 35.999,17.373 35.999,24 C35.999,30.626 30.628,35.998 24.001,35.998 L24.001,35.998 Z M24.001,16.001 C19.583,16.001 16.001,19.582 16.001,24 C16.001,28.417 19.584,31.999 24.001,31.999 C28.418,31.999 31.999,28.417 31.999,24 C31.999,19.582 28.419,16.001 24.001,16.001 L24.001,16.001 Z M24.001,8.002 C22.896,8.002 22.001,7.106 22.001,6.002 L22.001,2.003 C22.001,0.899 22.896,0.003 24.001,0.003 C25.105,0.003 26.001,0.899 26.001,2.003 L26.001,6.002 C26.001,7.106 25.104,8.002 24.001,8.002 L24.001,8.002 Z M9.86,12.688 L7.032,9.86 C6.251,9.079 6.251,7.813 7.032,7.032 C7.813,6.251 9.079,6.251 9.86,7.032 L12.688,9.86 C13.469,10.641 13.469,11.907 12.688,12.688 C11.907,13.469 10.641,13.469 9.86,12.688 L9.86,12.688 Z M8.002,24 C8.002,25.104 7.106,25.999 6.002,25.999 L2.002,25.999 C0.898,25.999 0.003,25.104 0.003,24 C0.003,22.896 0.899,22 2.002,22 L6.002,22 C7.107,22 8.002,22.896 8.002,24 L8.002,24 Z M9.86,35.312 C10.641,34.532 11.907,34.532 12.688,35.312 C13.469,36.093 13.469,37.36 12.688,38.14 L9.86,40.968 C9.079,41.749 7.813,41.749 7.032,40.968 C6.251,40.188 6.251,38.921 7.032,38.14 L9.86,35.312 L9.86,35.312 Z" id="Shape"></path>
            </g>
        </g>
    </g>
</svg>