<?xml version="1.0" encoding="utf-8"?>
<!-- Generator: Adobe Illustrator 19.2.1, SVG Export Plug-In . SVG Version: 6.00 Build 0)  -->
<svg version="1.1" id="Layer_1" xmlns="http://www.w3.org/2000/svg" xmlns:xlink="http://www.w3.org/1999/xlink" x="0px" y="0px"
	 viewBox="0 0 100 100" style="enable-background:new 0 0 100 100;" xml:space="preserve">
<g>
	<path id="sun" d="M54.2,36.5c-3.9,0-7.3,1.8-9.5,4.6c1.3,0.4,2.6,1,3.8,1.7c1.4-1.4,3.4-2.3,5.7-2.3c4.4,0,8,3.6,8,8
		c0,0.5-0.1,1-0.2,1.5c0,0,0,0-0.1,0c1.3,0.8,2.4,1.8,3.5,2.9c0,0,0-0.1-0.1-0.1c0.5-1.3,0.8-2.8,0.8-4.3
		C66.2,41.9,60.8,36.5,54.2,36.5z"/>
	<path id="ray_3_" d="M71.2,31.5c-0.8-0.8-2-0.8-2.8,0l-2.8,2.8c-0.8,0.8-0.8,2,0,2.8s2,0.8,2.8,0l2.8-2.8
		C72,33.6,72,32.3,71.2,31.5z"/>
	<path id="ray_2_" d="M54.2,32.5c1.1,0,2-0.9,2-2v-4c0-1.1-0.9-2-2-2s-2,0.9-2,2v4C52.2,31.6,53.1,32.5,54.2,32.5z"/>
	<path id="ray_1_" d="M40.1,31.5c-0.8-0.8-2-0.8-2.8,0s-0.8,2,0,2.8l2.8,2.8c0.8,0.8,2,0.8,2.8,0s0.8-2,0-2.8L40.1,31.5z"/>
	<path id="ray" d="M76.2,46.5h-4c-1.1,0-2,0.9-2,2s0.9,2,2,2h4c1.1,0,2-0.9,2-2S77.3,46.5,76.2,46.5z"/>
</g>
<path d="M40.2,72.5c-8.8,0-16-7.2-16-16s7.2-16,16-16c6,0,11.2,3.3,14,8.2c0.7-0.1,1.3-0.2,2-0.2c6.6,0,12,5.4,12,12s-5.4,12-12,12
	C53.4,72.5,43.4,72.5,40.2,72.5z M56.2,68.5c4.4,0,8-3.6,8-8s-3.6-8-8-8c-1.6,0-3.1,0.5-4.3,1.3c-1.2-5.3-6-9.3-11.7-9.3
	c-6.6,0-12,5.4-12,12s5.4,12,12,12C43.8,68.5,53.2,68.5,56.2,68.5z"/>
</svg>
