<?xml version="1.0" encoding="UTF-8" standalone="no"?>
<svg width="1440px" height="584px" viewBox="0 0 1440 584" version="1.1" xmlns="http://www.w3.org/2000/svg" xmlns:xlink="http://www.w3.org/1999/xlink">
    <!-- Generator: Sketch 3.6.1 (26313) - http://www.bohemiancoding.com/sketch -->
    <title>Sun</title>
    <desc>Created with Sketch.</desc>
    <defs></defs>
    <g id="Page-1" stroke="none" stroke-width="1" fill="none" fill-rule="evenodd">
        <g id="Sun">
            <rect id="Rectangle-13" fill="#FBD08C" x="-7" y="0" width="1450" height="584"></rect>
            <circle id="Oval-1" fill="#FFAD2C" cx="590" cy="304" r="160"></circle>
            <polygon id="Triangle-1-Copy-5" fill="#AB3631" points="17.5 223 656 608 -621 608 "></polygon>
            <polygon id="Triangle-1-Copy-6" fill="#C93732" points="350.5 250 989 635 -288 635 "></polygon>
            <polygon id="Triangle-1-Copy-8" fill="#A53C39" points="1063.5 250 1776 635 351 635 "></polygon>
            <polygon id="Triangle-1-Copy-7" fill="#FF493A" points="656.5 294 1295 679 18 679 "></polygon>
            <polygon id="Triangle-1-Copy-4" fill="#933032" points="254.5 346 640 555 -131 555 "></polygon>
            <polygon id="Triangle-1-Copy-3" fill="#A32D30" points="572.5 401 958 610 187 610 "></polygon>
            <polygon id="Triangle-1-Copy" fill="#80242D" points="867.5 384 1322 610 413 610 "></polygon>
            <polygon id="Triangle-1-Copy" fill="#6B1A2B" points="32.5 261 337 610 -272 610 "></polygon>
            <polygon id="Triangle-1" fill="#30192B" points="140.5 450 526 659 -245 659 "></polygon>
            <polygon id="Triangle-1-Copy-2" fill="#6B1A2B" points="1369.5 199 1755 584 984 584 "></polygon>
            <path d="M-74.755102,183.874843 C-106.732005,181.966888 -132,158.482589 -132,129.792553 C-132,99.854607 -104.48607,75.5851064 -70.5459184,75.5851064 C-68.4211129,75.5851064 -66.3214939,75.6802263 -64.2522355,75.8659022 C-51.09211,46.6543054 -18.728582,26 19.1096939,26 C50.4194382,26 77.9806569,40.1418738 94.015258,61.5719595 C103.463227,57.6237264 114.029432,55.4148936 125.181122,55.4148936 C165.397878,55.4148936 198,84.1422379 198,119.579213 C198,154.892475 165.625113,183.542872 125.602041,183.742483 L125.602041,184 L-74.755102,184 L-74.755102,183.874843 Z" id="Combined-Shape" fill="#FCC778"></path>
            <path d="M1041.2449,198.874843 C1009.26799,196.966888 984,173.482589 984,144.792553 C984,114.854607 1011.51393,90.5851064 1045.45408,90.5851064 C1047.57889,90.5851064 1049.67851,90.6802263 1051.74776,90.8659022 C1064.90789,61.6543054 1097.27142,41 1135.10969,41 C1166.41944,41 1193.98066,55.1418738 1210.01526,76.5719595 C1219.46323,72.6237264 1230.02943,70.4148936 1241.18112,70.4148936 C1281.39788,70.4148936 1314,99.1422379 1314,134.579213 C1314,169.892475 1281.62511,198.542872 1241.60204,198.742483 L1241.60204,199 L1041.2449,199 L1041.2449,198.874843 Z" id="Combined-Shape-Copy" fill="#FCC778"></path>
        </g>
    </g>
</svg>