<?xml version="1.0" encoding="UTF-8" standalone="no"?>
<svg width="1440px" height="584px" viewBox="0 0 1440 584" version="1.1" xmlns="http://www.w3.org/2000/svg" xmlns:xlink="http://www.w3.org/1999/xlink">
    <!-- Generator: Sketch 3.6.1 (26313) - http://www.bohemiancoding.com/sketch -->
    <title>App Top</title>
    <desc>Created with Sketch.</desc>
    <defs>
        <rect id="path-1" x="0" y="0" width="1440" height="584"></rect>
    </defs>
    <g id="Page-1" stroke="none" stroke-width="1" fill="none" fill-rule="evenodd">
        <g id="Desktop-HD">
            <g id="App-Top">
                <mask id="mask-2" fill="white">
                    <use xlink:href="#path-1"></use>
                </mask>
                <use id="Top-Panel" fill="#FFFFFF" xlink:href="#path-1"></use>
                <g id="Sun-Yellow" mask="url(#mask-2)" fill="#FFDB4D">
                    <g transform="translate(0.000000, -33.000000)">
                        <rect id="Rectangle-1-Copy" fill-opacity="0.5" transform="translate(720.000000, 435.500000) scale(1, -1) translate(-720.000000, -435.500000) " x="0" y="33" width="1440" height="805"></rect>
                        <rect id="Rectangle-1-Copy-2" fill-opacity="0.1" transform="translate(720.000000, 924.000000) scale(1, -1) translate(-720.000000, -924.000000) " x="0" y="560" width="1440" height="728"></rect>
                        <rect id="Rectangle-1-Copy-3" fill-opacity="0.1" transform="translate(720.000000, 868.000000) scale(1, -1) translate(-720.000000, -868.000000) " x="0" y="504" width="1440" height="728"></rect>
                        <rect id="Rectangle-1-Copy-4" fill-opacity="0.1" transform="translate(720.000000, 812.000000) scale(1, -1) translate(-720.000000, -812.000000) " x="0" y="448" width="1440" height="728"></rect>
                        <rect id="Rectangle-1-Copy-5" fill-opacity="0.1" transform="translate(720.000000, 756.000000) scale(1, -1) translate(-720.000000, -756.000000) " x="0" y="392" width="1440" height="728"></rect>
                        <rect id="Rectangle-1-Copy-6" fill-opacity="0.1" transform="translate(720.000000, 700.000000) scale(1, -1) translate(-720.000000, -700.000000) " x="0" y="336" width="1440" height="728"></rect>
                        <rect id="Rectangle-1-Copy-7" fill-opacity="0.1" transform="translate(720.000000, 644.000000) scale(1, -1) translate(-720.000000, -644.000000) " x="0" y="280" width="1440" height="728"></rect>
                        <rect id="Rectangle-1-Copy-8" fill-opacity="0.1" transform="translate(720.000000, 588.000000) scale(1, -1) translate(-720.000000, -588.000000) " x="0" y="224" width="1440" height="728"></rect>
                        <rect id="Rectangle-1-Copy-10" fill-opacity="0.1" transform="translate(720.000000, 476.000000) scale(1, -1) translate(-720.000000, -476.000000) " x="0" y="112" width="1440" height="728"></rect>
                        <rect id="Rectangle-1-Copy-11" fill-opacity="0.1" transform="translate(720.000000, 420.000000) scale(1, -1) translate(-720.000000, -420.000000) " x="0" y="56" width="1440" height="728"></rect>
                        <rect id="Rectangle-1-Copy-12" fill-opacity="0.1" transform="translate(720.000000, 364.000000) scale(1, -1) translate(-720.000000, -364.000000) " x="0" y="0" width="1440" height="728"></rect>
                    </g>
                </g>
            </g>
        </g>
    </g>
</svg>