<?xml version="1.0" encoding="UTF-8" standalone="no"?>
<svg width="24px" height="24px" viewBox="0 0 24 24" version="1.1" xmlns="http://www.w3.org/2000/svg" xmlns:xlink="http://www.w3.org/1999/xlink">
    <!-- Generator: Sketch 3.7.1 (28215) - http://www.bohemiancoding.com/sketch -->
    <title>calendar</title>
    <desc>Created with Sketch.</desc>
    <defs></defs>
    <g id="Page-1" stroke="none" stroke-width="1" fill="none" fill-rule="evenodd" opacity="0.59818097">
        <g id="calendar" fill="#FFFFFF">
            <g id="Page-1">
                <g id="Desktop-HD">
                    <g id="Group-2">
                        <g id="time">
                            <g id="Capa_1">
                                <g id="Group">
                                    <path d="M22.62825,5.724 L0.666,5.724 C0.2985,5.724 0,5.4255 0,5.058 L0,0.666 C0,0.29775 0.2985,0 0.666,0 L22.62825,0 C22.99575,0 23.29425,0.29775 23.29425,0.666 L23.29425,5.058 C23.29425,5.4255 22.99575,5.724 22.62825,5.724 L22.62825,5.724 L22.62825,5.724 Z M1.33125,4.392 L21.963,4.392 L21.963,1.3305 L1.33125,1.3305 L1.33125,4.392 L1.33125,4.392 L1.33125,4.392 Z" id="Shape"></path>
                                    <path d="M22.62825,23.29425 L0.666,23.29425 C0.2985,23.29425 0,22.99575 0,22.62825 L0,0.666 C0,0.29775 0.2985,0 0.666,0 L22.62825,0 C22.99575,0 23.29425,0.29775 23.29425,0.666 L23.29425,22.62825 C23.29425,22.99575 22.99575,23.29425 22.62825,23.29425 L22.62825,23.29425 L22.62825,23.29425 Z M1.33125,21.963 L21.963,21.963 L21.963,1.3305 L1.33125,1.3305 L1.33125,21.963 L1.33125,21.963 L1.33125,21.963 Z" id="Shape"></path>
                                </g>
                            </g>
                        </g>
                    </g>
                </g>
            </g>
        </g>
    </g>
</svg>