<?xml version="1.0" encoding="UTF-8" standalone="no"?>
<svg width="19px" height="27px" viewBox="0 0 19 27" version="1.1" xmlns="http://www.w3.org/2000/svg" xmlns:xlink="http://www.w3.org/1999/xlink">
    <!-- Generator: Sketch 3.6.1 (26313) - http://www.bohemiancoding.com/sketch -->
    <title>Shape</title>
    <desc>Created with Sketch.</desc>
    <defs></defs>
    <g id="Page-1" stroke="none" stroke-width="1" fill="none" fill-rule="evenodd" opacity="0.59818097">
        <g id="Desktop-HD" transform="translate(-128.000000, -855.000000)" stroke-width="1.5" stroke="#000000">
            <g id="Group" transform="translate(129.000000, 856.000000)">
                <g id="Compass-North" transform="translate(8.500000, 12.000000) scale(1, -1) translate(-8.500000, -12.000000) ">
                    <g id="Layer_1">
                        <path d="M0,16 C0,20.418 3.805875,24 8.5,24 C13.194125,24 16.997875,20.418 16.997875,16 C16.997875,11.582 8.5,0.002 8.5,0.002 C8.5,0.002 0,11.582 0,16 L0,16 Z M10.625,16 C10.625,17.106 9.673,18 8.5,18 C7.324875,18 6.375,17.106 6.375,16 C6.375,14.896 7.324875,14 8.5,14 C9.673,14 10.625,14.896 10.625,16 L10.625,16 Z" id="Shape"></path>
                    </g>
                </g>
            </g>
        </g>
    </g>
</svg>