<?xml version="1.0" encoding="UTF-8" standalone="no"?>
<svg width="13px" height="13px" viewBox="0 0 13 13" version="1.1" xmlns="http://www.w3.org/2000/svg" xmlns:xlink="http://www.w3.org/1999/xlink">
    <!-- Generator: Sketch 3.7.1 (28215) - http://www.bohemiancoding.com/sketch -->
    <title>reload</title>
    <desc>Created with Sketch.</desc>
    <defs></defs>
    <g id="Page-1" stroke="none" stroke-width="1" fill="none" fill-rule="evenodd">
        <g id="Desktop-HD" transform="translate(-1389.000000, -38.000000)" fill="#000000">
            <g id="reload" transform="translate(1374.000000, 24.000000)">
                <g id="arrows-1" transform="translate(15.313889, 14.750000)">
                    <g id="Capa_1" transform="translate(-0.000000, 0.000000)">
                        <path d="M12.0949935,8.35542647 C12.0148317,8.10870261 11.7498431,7.9738219 11.5030817,8.05383333 L10.8922288,8.25230229 C11.2664297,7.47841993 11.4624183,6.62741993 11.4624183,5.7584183 C11.4624183,2.59821078 8.89145425,0.0272091503 5.73120915,0.0272091503 C2.57100163,0.0272091503 0,2.59821078 0,5.7584183 C0,8.91862582 2.57100163,11.4896275 5.73120915,11.4896275 C5.99063562,11.4896275 6.20098039,11.2792827 6.20098039,11.0198562 C6.20098039,10.7604673 5.99063562,10.550085 5.73120915,10.550085 C3.08906536,10.550085 0.939542484,8.40059967 0.939542484,5.7584183 C0.939542484,3.11627451 3.08906536,0.966751634 5.73120915,0.966751634 C8.37339052,0.966751634 10.5228758,3.11627451 10.5228758,5.7584183 C10.5228758,6.48645098 10.3586062,7.19918791 10.0447239,7.84675817 L9.83603268,7.20426144 C9.75587092,6.95757516 9.49080719,6.8225817 9.24412092,6.9026683 C8.99735948,6.98286765 8.86229085,7.24789379 8.94245261,7.49461765 L9.49640686,9.19962418 C9.56085948,9.3981683 9.7450098,9.52440523 9.94306536,9.52440523 C9.99113235,9.52440523 10.0401013,9.51696405 10.0883186,9.50133007 L11.7933627,8.94745098 C12.0400866,8.86725163 12.1751552,8.60226307 12.0949935,8.35542647 L12.0949935,8.35542647 Z" id="Shape"></path>
                    </g>
                </g>
            </g>
        </g>
    </g>
</svg>